<svg xmlns="http://www.w3.org/2000/svg" width="408" height="48"><path d="M15.6 38.1c-2 0-4-.4-5.9-1.2-1.9-.8-3.5-2-5-3.5-1.4-1.5-2.6-3.4-3.4-5.6C.4 25.6 0 23.2 0 20.4s.4-5.2 1.3-7.5c.8-2.2 2-4.2 3.5-5.8C6.3 5.5 8 4.3 10 3.4c2-.9 4.1-1.3 6.4-1.3 1.7 0 3.2.2 4.6.6 1.4.4 2.7 1 3.9 1.8l1-1.6h1.9l.2 12.3h-2c-.3-1.2-.6-2.5-1.2-3.9-.5-1.4-1.1-2.6-1.8-3.5-.8-1.1-1.7-2-2.8-2.6-1.1-.6-2.3-.9-3.7-.9-1.6 0-3 .3-4.4 1-1.2.6-2.3 1.7-3.3 3-.9 1.3-1.7 3-2.2 5-.5 2-.8 4.3-.8 6.8 0 2.2.3 4.2.8 6 .6 1.8 1.4 3.4 2.4 4.8s2.3 2.4 3.7 3.2c1.4.8 3 1.2 4.7 1.2 1.3 0 2.5-.2 3.6-.6 1.1-.4 2-1 2.9-1.6.8-.7 1.5-1.5 2.1-2.4.6-.9 1.1-1.9 1.5-3l1.8.9c-1.4 3.4-3.2 5.8-5.5 7.3s-5 2.2-8.2 2.2zm38.2-7.5c0 1.2-.3 2.2-.8 3.1-.5.9-1.3 1.6-2.2 2.1-.9.5-1.8.9-2.9 1.1-1.1.3-2.3.4-3.5.4H31.8v-1.6c.4 0 .8-.1 1.2-.1.4 0 .7-.1 1-.2.5-.1.8-.4 1-.8.2-.4.3-.8.3-1.4V17.7c0-.5-.1-1-.3-1.3-.2-.4-.6-.6-1-.8-.4-.2-.8-.3-1.2-.4-.4-.1-.8-.1-1.1-.1v-1.6h12c1.2 0 2.4.1 3.4.3 1.1.2 2 .5 2.8.9.9.4 1.5 1 2 1.7s.7 1.6.7 2.6c0 1.6-.5 2.9-1.5 3.8-1 .9-2.3 1.6-3.9 1.9v.3c.8.1 1.6.3 2.4.6.8.3 1.5.6 2.1 1.1.6.5 1.2 1 1.6 1.7.3.4.5 1.2.5 2.2zm-6.1-11.7c0-.8-.1-1.5-.4-2-.3-.5-.7-.9-1.2-1.2-.5-.2-1.1-.4-1.7-.5-.6-.1-1.3-.2-1.9-.2h-1.4c-.5 0-1 0-1.3.1v8.7h2.3c1.1 0 2-.1 2.8-.4.8-.3 1.3-.6 1.7-1 .4-.4.7-.9.9-1.5.1-.6.2-1.2.2-2zM49 30.2c0-1.4-.5-2.5-1.6-3.4-1.1-.8-2.6-1.2-4.5-1.2h-3.2v7.9c0 .6.3 1.1.8 1.5.5.3 1.4.5 2.5.5 1.2 0 2.2-.2 3-.5.8-.3 1.4-.7 1.9-1.3.4-.5.7-1.1.9-1.7.1-.4.2-1.1.2-1.8zm31.7-5.1c0 1.7-.3 3.3-.8 5-.5 1.6-1.3 3-2.3 4.1-1.1 1.3-2.4 2.3-3.9 2.9-1.5.6-3.1.9-4.9.9-1.5 0-3-.3-4.3-.9-1.4-.6-2.6-1.4-3.7-2.5s-1.9-2.4-2.5-4c-.6-1.6-.9-3.3-.9-5.2 0-3.7 1.1-6.8 3.3-9.2 2.2-2.4 5-3.6 8.5-3.6 3.3 0 6.1 1.1 8.3 3.4 2.1 2.3 3.2 5.3 3.2 9.1zm-5 0c0-1.2-.1-2.5-.4-3.8-.2-1.3-.6-2.5-1.1-3.4-.5-1-1.2-1.8-2-2.4-.8-.6-1.9-.9-3.1-.9-1.2 0-2.3.3-3.2.9-.9.6-1.6 1.5-2.1 2.5s-.9 2.1-1.1 3.4c-.2 1.3-.3 2.5-.3 3.7 0 1.6.1 3 .4 4.3.3 1.3.7 2.5 1.2 3.5.6 1 1.2 1.8 2.1 2.4.8.6 1.9.9 3.1.9 2 0 3.6-1 4.8-2.9s1.7-4.7 1.7-8.2zm11-5.5h.2c.8-1.9 2-3.5 3.6-4.8 1.6-1.3 3.5-1.9 5.7-1.9 1.8 0 3.4.3 4.9.9 1.4.6 2.6 1.5 3.6 2.6s1.7 2.4 2.2 3.9c.5 1.5.7 3.1.7 4.9 0 1.7-.3 3.4-.8 5s-1.3 3-2.3 4.1c-1.1 1.2-2.3 2.2-3.8 2.8-1.4.7-3.1 1-5.1 1-1.5 0-2.9-.3-4.3-.9-1.4-.6-2.6-1.5-3.6-2.7-1-1.2-1.9-2.8-2.5-4.8-.6-2-.9-4.2-.9-6.9 0-2.5.2-4.8.5-6.8s.8-3.8 1.3-5.4c.7-2.3 1.9-4.1 3.5-5.5 1.6-1.4 3.5-2.2 5.8-2.3 1.1-.1 2.4-.1 3.7-.2 1.3-.1 2.3-.1 3-.2.7 0 1.3-.2 2-.6.6-.3 1.3-.9 1.9-1.7l1.4 1c-.4.5-.8 1.1-1.4 1.9-.6.8-1.1 1.4-1.6 1.9-.4.4-.7.7-.9 1-.3.3-.5.4-.8.6-.3.1-.6.3-.9.3-.4.1-.9.1-1.5.1-.7 0-1.5.1-2.5.2s-1.9.1-2.6.1c-1.1 0-2.1.3-2.9.8s-1.5 1-2.1 1.7c-.6.6-1.1 1.4-1.4 2.2-.4.8-.6 1.5-.8 2.1-.3 1-.6 2-.8 2.9-.3.7-.4 1.7-.5 2.7zm14.2 13.3c.6-1.1 1-2.3 1.2-3.5.3-1.2.4-2.7.4-4.3 0-1.3-.1-2.6-.3-3.8-.2-1.3-.6-2.4-1.1-3.4-.5-1-1.2-1.8-2-2.4-.8-.6-1.8-.9-3.1-.9s-2.4.3-3.3.9-1.6 1.4-2.1 2.4-.9 2.1-1.1 3.4c-.2 1.3-.3 2.5-.3 3.6 0 1.9.1 3.5.4 4.7.3 1.3.7 2.4 1.2 3.3.5 1 1.2 1.7 2 2.3.8.5 1.9.8 3.1.8 1.1 0 2.1-.3 2.9-.9.9-.4 1.6-1.2 2.1-2.2zm33.4-7.8c0 1.7-.3 3.3-.8 5-.5 1.6-1.3 3-2.3 4.1-1.1 1.3-2.4 2.3-3.9 2.9-1.5.6-3.1.9-4.9.9-1.5 0-3-.3-4.3-.9-1.4-.6-2.6-1.4-3.7-2.5-1-1.1-1.9-2.4-2.5-4-.6-1.6-.9-3.3-.9-5.2 0-3.7 1.1-6.8 3.3-9.2 2.2-2.4 5-3.6 8.5-3.6 3.3 0 6.1 1.1 8.3 3.4 2.1 2.3 3.2 5.3 3.2 9.1zm-5 0c0-1.2-.1-2.5-.4-3.8-.2-1.3-.6-2.5-1.1-3.4-.5-1-1.2-1.8-2-2.4-.8-.6-1.9-.9-3.1-.9-1.2 0-2.3.3-3.2.9-.9.6-1.6 1.5-2.1 2.5s-.9 2.1-1.1 3.4c-.2 1.3-.3 2.5-.3 3.7 0 1.6.1 3 .4 4.3.3 1.3.7 2.5 1.2 3.5.6 1 1.2 1.8 2.1 2.4.8.6 1.9.9 3.1.9 2 0 3.6-1 4.8-2.9 1.1-2 1.7-4.7 1.7-8.2zm9.4 10.2c1.6-2.1 3-4.9 4.2-8.3 1.2-3.4 1.8-6.3 1.8-8.5 0-.8-.1-1.5-.3-1.9-.2-.4-.5-.7-1-.9-.3-.2-.8-.3-1.5-.4-.7-.1-1.3-.2-1.7-.3v-1.6H162V15c-.5 0-.9.1-1.2.1-.3 0-.7.1-1 .2-.5.1-.8.4-1 .8-.2.4-.3.9-.3 1.4V33c0 .9.2 1.5.5 1.8.3.4 1 .5 2.1.5h1.6v8.9H161c-.3-1.6-.9-3.2-1.7-4.6-.8-1.5-1.7-2.3-2.6-2.5h-14.1c-.9.1-1.8 1-2.7 2.4s-1.5 3-1.8 4.7h-1.7v-8.9h2.3zm2.8 0h10.4c.7 0 1.2-.1 1.5-.4.3-.3.5-.6.5-1.2V15.4h-6.7c-.1 4.1-.7 7.8-1.7 11.2-1 3.4-2.3 6.3-4 8.7zm50.8 2h-11.7v-1.6c.4 0 .8-.1 1.2-.1.4 0 .7-.1 1-.2.5-.1.8-.4 1-.8.2-.4.4-.8.4-1.4v-7.6h-10.6V33c0 .5.1 1 .3 1.4.2.4.6.6 1 .8.3.2.7.3 1.1.4.4.1.8.1 1.2.2v1.6h-11.7v-1.6c.4 0 .8-.1 1.2-.1.4 0 .7-.1 1-.2.5-.1.8-.4 1-.8.2-.4.3-.8.3-1.4V17.7c0-.5-.1-1-.3-1.3-.2-.4-.6-.6-1-.8-.4-.2-.8-.3-1.2-.4-.4-.1-.8-.1-1.1-.1v-1.6h11.7v1.6c-.5 0-.9.1-1.2.1s-.7.1-1 .2c-.5.1-.8.4-1 .8-.2.4-.3.9-.3 1.4v6.2h10.6v-5.9c0-.5-.1-1-.3-1.3-.2-.4-.6-.6-1-.8-.4-.2-.8-.3-1.2-.4-.4-.1-.8-.1-1.1-.1v-1.6h11.7v1.6c-.5 0-.9.1-1.2.1s-.7.1-1 .2c-.5.1-.8.4-1 .8-.2.4-.3.9-.3 1.4v15.5c0 .6.1 1 .3 1.4.2.3.5.6 1 .8.3.2.7.3 1.1.4.4.1.8.1 1.2.2v1.2zm26-.5c-.8.3-1.4.5-2 .7-.6.2-1.2.3-2 .3-1.3 0-2.3-.3-3-.9-.7-.6-1.2-1.4-1.4-2.6h-.1c-1 1.2-2.2 2.1-3.4 2.7-1.2.6-2.7.9-4.3.9-1.8 0-3.3-.5-4.4-1.6-1.2-1.1-1.7-2.5-1.7-4.3 0-.9.1-1.7.4-2.5.3-.7.6-1.4 1.2-2 .4-.5.9-.9 1.6-1.3.7-.4 1.3-.7 1.9-.9.7-.3 2.2-.8 4.4-1.5s3.7-1.3 4.5-1.7v-2.5c0-.2 0-.6-.1-1.2s-.3-1.2-.6-1.7c-.3-.6-.8-1.1-1.4-1.6-.6-.4-1.4-.7-2.5-.7-.7 0-1.4.1-2.1.4-.6.3-1.1.5-1.3.8 0 .3.1.8.2 1.4.2.6.2 1.2.2 1.7 0 .6-.3 1.1-.8 1.6s-1.2.7-2.1.7c-.8 0-1.4-.3-1.8-.9-.4-.6-.6-1.2-.6-1.9s.3-1.5.8-2.1c.5-.7 1.2-1.3 2-1.8.7-.5 1.6-.8 2.6-1.2 1-.3 2-.5 3-.5 1.4 0 2.5.1 3.5.3 1 .2 1.9.6 2.8 1.2.8.6 1.4 1.4 1.9 2.4.4 1 .6 2.3.6 4 0 2.3 0 4.4-.1 6.1s-.1 3.7-.1 5.9c0 .6.1 1.1.3 1.5.2.4.6.7 1 .9.2.1.6.2 1.2.2h1.6v1.7zM209.9 24c-1.4.4-2.6.8-3.6 1.2-1 .4-2 .9-2.9 1.5-.8.6-1.4 1.2-1.9 2s-.7 1.6-.7 2.7c0 1.3.4 2.3 1.1 3 .7.6 1.6.9 2.7.9s2.2-.3 3-.8c.9-.6 1.6-1.2 2.2-2l.1-8.5zm19.1 1.7v-.1c-2.2-.4-3.8-1.2-4.8-2.2-1-1-1.5-2.3-1.5-3.8 0-1.9.9-3.4 2.6-4.5 1.7-1.1 3.9-1.7 6.5-1.7h12.5V15c-.5 0-.9.1-1.2.1-.3 0-.7.1-1 .2-.5.1-.8.4-1 .8-.2.4-.3.9-.3 1.4V33c0 .6.1 1 .3 1.4.2.3.5.6 1 .8.3.2.7.3 1.1.4.4.1.8.1 1.2.2v1.6h-11.7v-1.6c.4 0 .8-.1 1.2-.1.4 0 .7-.1 1-.2.5-.1.8-.4 1-.8.2-.4.4-.8.4-1.4v-6.7h-1c-1.5 0-2.7.3-3.5.9-.8.6-1.7 1.7-2.4 3.2-.6 1.2-1 2.3-1.4 3.3-.4 1-.7 2.1-1.1 3.4h-8.2v-1.6c.4 0 .7-.1 1.1-.1.3 0 .7-.1 1.1-.2.5-.1 1-.3 1.4-.6.4-.3.8-.8 1.1-1.4.2-.4.4-.9.7-1.5.3-.6.6-1.3 1-2.1.5-1 1.1-1.8 1.7-2.5.5-.8 1.3-1.3 2.2-1.7zm7.3-1v-9.6h-2.7c-1.7 0-3.1.4-4.2 1.2-1.1.8-1.7 2-1.7 3.5 0 1.6.6 2.8 1.8 3.7 1.2.8 2.9 1.3 5 1.3h1.8z"/><path fill="#981C21" d="M283.8 37.3h-14.3v-1.7c.4 0 .9-.1 1.7-.1.7-.1 1.2-.2 1.5-.3.5-.2.8-.5 1.1-.9.2-.4.3-.9.3-1.5V5h-15.8v27.4c0 .6.1 1 .3 1.4s.6.7 1.1 1c.3.1.8.3 1.5.4.7.1 1.3.2 1.7.2v1.7h-14.3v-1.7c.4 0 .9-.1 1.7-.1s1.2-.2 1.5-.3c.5-.2.8-.5 1.1-.9.2-.4.3-.9.3-1.5V7.9c0-.5-.1-1-.3-1.4-.2-.4-.6-.8-1.1-1-.4-.2-1-.4-1.6-.6-.6-.2-1.2-.3-1.6-.3V2.9h35.3v1.7c-.5 0-1 .1-1.7.2s-1.1.3-1.5.4c-.5.2-.9.5-1.1 1-.2.5-.3.9-.3 1.5v24.8c0 .6.1 1 .3 1.4.2.4.6.7 1.1 1 .3.1.8.3 1.5.4.7.1 1.3.2 1.7.2v1.8zm26-21.1c1 1.1 1.7 2.4 2.2 3.9.5 1.5.8 3.2.8 5.1 0 1.9-.3 3.6-.9 5.2-.6 1.6-1.5 2.9-2.5 4-1.1 1.1-2.3 2-3.6 2.6-1.3.6-2.7.9-4.2.9-1.4 0-2.6-.2-3.5-.5-.9-.3-1.7-.7-2.3-1.1h-.2v7.2c0 .6.1 1.1.3 1.5.2.4.6.7 1 .9.4.1.9.3 1.7.4.7.1 1.3.2 1.8.2v1.6h-13.3v-1.6c.5 0 1-.1 1.5-.1s.9-.1 1.3-.2c.5-.2.8-.4 1-.8.2-.4.3-.9.3-1.4V18.4c0-.5-.1-1-.4-1.4s-.6-.8-.9-1.1c-.3-.2-.7-.3-1.2-.4-.5-.1-1-.2-1.5-.2v-1.6l8.1-.5.3.3v2.7h.2c.8-1 1.9-1.8 3.1-2.4 1.2-.6 2.5-1 3.7-1 1.5 0 2.8.3 4.1.9 1.2.6 2.2 1.4 3.1 2.5zm-3.9 17.2c.6-1 1.1-2.2 1.4-3.5.3-1.3.5-2.8.5-4.4 0-1.2-.1-2.4-.4-3.7-.3-1.2-.7-2.3-1.2-3.2-.5-.9-1.3-1.7-2.2-2.3-.9-.6-2-.9-3.2-.9-1.2 0-2.2.3-3.1.8-.8.5-1.6 1.2-2.2 1.9v14.1c.1.4.4.9.7 1.4.3.5.7.9 1.1 1.2.5.4 1 .7 1.6 1 .6.3 1.3.4 2.1.4.9 0 1.8-.2 2.6-.7 1-.6 1.7-1.2 2.3-2.1zm31.7-1.8c-1 1.9-2.3 3.4-4 4.6-1.7 1.1-3.6 1.7-5.8 1.7-1.9 0-3.6-.3-5.1-1-1.4-.7-2.6-1.6-3.6-2.8-.9-1.2-1.6-2.5-2.1-4.1-.5-1.5-.7-3.2-.7-4.9 0-1.5.2-3.1.7-4.6.5-1.5 1.2-2.8 2.2-4 .9-1.1 2.1-2.1 3.4-2.8 1.4-.7 2.9-1.1 4.6-1.1 1.7 0 3.2.3 4.5.8 1.2.5 2.3 1.3 3 2.3.7.9 1.3 2 1.7 3.2.4 1.2.5 2.6.5 4v1.6h-15.8c0 1.6.1 3 .4 4.3.3 1.3.8 2.4 1.4 3.4.6.9 1.5 1.7 2.5 2.2 1 .5 2.2.8 3.6.8s2.7-.3 3.7-1 2-1.9 3-3.6l1.9 1zm-5.4-9.1c0-.9-.1-1.9-.2-2.9-.2-1-.4-1.9-.7-2.6-.4-.7-.9-1.3-1.5-1.8s-1.5-.7-2.5-.7c-1.7 0-3.1.7-4.2 2.1s-1.7 3.4-1.8 5.9h10.9zm19.2 15.4c-3.5 0-6.2-1.1-8.1-3.4-2-2.3-2.9-5.4-2.9-9.2 0-1.7.3-3.2.8-4.7s1.3-2.8 2.3-4c1-1.1 2.1-2.1 3.6-2.8 1.4-.7 3-1.1 4.7-1.1 2.3 0 4.2.6 5.7 1.7s2.2 2.7 2.2 4.6c0 .8-.2 1.5-.6 2.1-.4.6-1 .9-1.9.9-1 0-1.7-.2-2.2-.7-.5-.5-.8-1-.8-1.6 0-.7.1-1.5.3-2.2.2-.8.3-1.3.3-1.7-.3-.5-.7-.8-1.3-1-.6-.2-1.2-.3-1.8-.3-.8 0-1.5.2-2.2.5-.7.3-1.4.9-2 1.8-.6.8-1.1 1.9-1.5 3.3-.4 1.4-.6 3-.6 4.9 0 3 .7 5.5 2 7.4 1.3 1.9 3.1 2.8 5.2 2.8 1.6 0 2.9-.4 3.9-1.1s2-1.9 2.9-3.4l1.5 1c-1.1 1.9-2.5 3.4-4.2 4.5-1.7 1.1-3.5 1.7-5.3 1.7zm22.5 0c-3.5 0-6.2-1.1-8.1-3.4-2-2.3-2.9-5.4-2.9-9.2 0-1.7.3-3.2.8-4.7s1.3-2.8 2.3-4c1-1.1 2.1-2.1 3.6-2.8 1.4-.7 3-1.1 4.7-1.1 2.3 0 4.2.6 5.7 1.7s2.2 2.7 2.2 4.6c0 .8-.2 1.5-.6 2.1-.4.6-1 .9-1.9.9-1 0-1.7-.2-2.2-.7-.5-.5-.8-1-.8-1.6 0-.7.1-1.5.3-2.2.2-.8.3-1.3.3-1.7-.3-.5-.7-.8-1.3-1-.6-.2-1.2-.3-1.8-.3-.8 0-1.5.2-2.2.5-.7.3-1.4.9-2 1.8-.6.8-1.1 1.9-1.5 3.3-.4 1.4-.6 3-.6 4.9 0 3 .7 5.5 2 7.4 1.3 1.9 3.1 2.8 5.2 2.8 1.6 0 2.9-.4 3.9-1.1 1.1-.8 2-1.9 2.9-3.4l1.5 1c-1.1 1.9-2.5 3.4-4.2 4.5-1.7 1.1-3.5 1.7-5.3 1.7zm34.1-1.1c-.8.3-1.4.5-2 .7-.6.2-1.2.3-2 .3-1.3 0-2.3-.3-3-.9-.7-.6-1.2-1.4-1.4-2.6h-.1c-1 1.2-2.2 2.1-3.4 2.7-1.2.6-2.7.9-4.3.9-1.8 0-3.3-.5-4.4-1.6s-1.7-2.5-1.7-4.3c0-.9.1-1.7.4-2.5.3-.7.6-1.4 1.2-2 .4-.5.9-.9 1.6-1.3.7-.4 1.3-.7 1.9-.9.7-.3 2.2-.8 4.4-1.5s3.7-1.3 4.5-1.7v-2.5c0-.2 0-.6-.1-1.2s-.3-1.2-.6-1.7c-.3-.6-.8-1.1-1.4-1.6-.6-.4-1.4-.7-2.5-.7-.7 0-1.4.1-2.1.4-.6.3-1.1.5-1.3.8 0 .3.1.8.2 1.4.2.6.2 1.2.2 1.7 0 .6-.3 1.1-.8 1.6s-1.2.7-2.1.7c-.8 0-1.4-.3-1.8-.9-.4-.6-.6-1.2-.6-1.9s.3-1.5.8-2.1c.5-.7 1.2-1.3 2-1.8.7-.5 1.6-.8 2.6-1.2 1-.3 2-.5 3-.5 1.4 0 2.5.1 3.5.3 1 .2 1.9.6 2.8 1.2.8.6 1.4 1.4 1.9 2.4.4 1 .6 2.3.6 4 0 2.3 0 4.4-.1 6.1 0 1.8-.1 3.7-.1 5.9 0 .6.1 1.1.3 1.5.2.4.6.7 1 .9.2.1.6.2 1.2.2h1.6v1.7zM399.5 24c-1.4.4-2.6.8-3.6 1.2-1 .4-2 .9-2.9 1.5-.8.6-1.4 1.2-1.9 2s-.7 1.6-.7 2.7c0 1.3.4 2.3 1.1 3 .7.6 1.6.9 2.7.9s2.2-.3 3-.8c.9-.6 1.6-1.2 2.2-2l.1-8.5z"/></svg>